<svg width="799" height="267" viewBox="0 0 799 267" fill="none" xmlns="http://www.w3.org/2000/svg">
<rect width="799" height="267" rx="50" fill="#F4F0EC"/>
<path d="M230.725 168L230.775 167.75L231.375 167.525C232.142 167.208 232.609 166.642 232.775 165.825L234 159.25C234.134 158.55 234.275 157.775 234.425 156.925C234.592 156.058 234.75 155.2 234.9 154.35C235.05 153.483 235.184 152.7 235.3 152H234.225C233.625 152 233.109 152.108 232.675 152.325C232.242 152.542 231.85 152.892 231.5 153.375L229.5 156.1H229.25L230.175 151.5H244.025L243.225 156.1H242.975L242.05 153.575C241.684 152.525 240.925 152 239.775 152H238.75L237.2 160.225C237.034 161.075 236.859 161.992 236.675 162.975C236.509 163.942 236.342 164.883 236.175 165.8C236.025 166.667 236.35 167.267 237.15 167.6L237.475 167.75L237.425 168H230.725ZM243.716 168.15L243.566 168L245.841 157.1C245.974 156.467 246.091 155.9 246.191 155.4C246.291 154.883 246.399 154.308 246.516 153.675C246.649 152.958 246.374 152.483 245.691 152.25L245.291 152.125L245.341 151.875L250.116 150.475L250.291 150.65L248.591 158.625C249.424 157.758 250.308 157.042 251.241 156.475C252.191 155.892 253.066 155.6 253.866 155.6C254.399 155.6 254.833 155.767 255.166 156.1C255.516 156.417 255.691 156.917 255.691 157.6C255.691 157.95 255.658 158.317 255.591 158.7C255.524 159.067 255.441 159.45 255.341 159.85L254.091 164.95C254.024 165.267 253.958 165.542 253.891 165.775C253.824 165.992 253.791 166.167 253.791 166.3C253.791 166.65 253.941 166.825 254.241 166.825C254.674 166.825 255.283 166.458 256.066 165.725L256.291 165.95C255.891 166.567 255.349 167.125 254.666 167.625C253.983 168.125 253.208 168.375 252.341 168.375C251.791 168.375 251.366 168.25 251.066 168C250.766 167.733 250.616 167.367 250.616 166.9C250.616 166.55 250.658 166.192 250.741 165.825C250.824 165.442 250.924 165.05 251.041 164.65L252.166 160.25C252.283 159.8 252.383 159.392 252.466 159.025C252.566 158.642 252.616 158.317 252.616 158.05C252.616 157.467 252.341 157.175 251.791 157.175C250.974 157.175 249.899 157.842 248.566 159.175L247.816 162.65C247.599 163.667 247.408 164.592 247.241 165.425C247.091 166.242 246.941 167.1 246.791 168L243.716 168.15ZM262.514 168.375C261.264 168.375 260.247 167.967 259.464 167.15C258.681 166.333 258.289 165.175 258.289 163.675C258.289 162.608 258.472 161.592 258.839 160.625C259.206 159.658 259.714 158.8 260.364 158.05C261.031 157.283 261.797 156.683 262.664 156.25C263.531 155.817 264.472 155.6 265.489 155.6C266.539 155.6 267.339 155.842 267.889 156.325C268.456 156.792 268.739 157.417 268.739 158.2C268.739 158.85 268.431 159.492 267.814 160.125C267.214 160.758 266.364 161.333 265.264 161.85C264.164 162.35 262.872 162.733 261.389 163C261.406 164.15 261.656 164.992 262.139 165.525C262.622 166.058 263.289 166.325 264.139 166.325C264.856 166.325 265.514 166.133 266.114 165.75C266.714 165.35 267.222 164.883 267.639 164.35L267.889 164.525C267.556 165.175 267.122 165.792 266.589 166.375C266.072 166.958 265.472 167.442 264.789 167.825C264.106 168.192 263.347 168.375 262.514 168.375ZM265.314 156.275C264.931 156.275 264.514 156.442 264.064 156.775C263.631 157.108 263.214 157.567 262.814 158.15C262.431 158.717 262.106 159.375 261.839 160.125C261.589 160.858 261.439 161.642 261.389 162.475C263.222 161.975 264.522 161.317 265.289 160.5C266.072 159.683 266.464 158.758 266.464 157.725C266.464 157.225 266.356 156.858 266.139 156.625C265.922 156.392 265.647 156.275 265.314 156.275ZM278.633 168.375C277.966 168.375 277.375 168.117 276.858 167.6C276.358 167.083 276.108 166.183 276.108 164.9C276.108 164.033 276.275 163.158 276.608 162.275C276.941 161.392 277.383 160.558 277.933 159.775C278.5 158.975 279.133 158.258 279.833 157.625C280.55 156.992 281.291 156.5 282.058 156.15C282.825 155.783 283.575 155.6 284.308 155.6C284.641 155.6 284.958 155.65 285.258 155.75L285.633 153.875C285.783 153.125 285.508 152.617 284.808 152.35L284.258 152.125L284.308 151.875L289.158 150.475L289.333 150.65L286.258 165.2C286.208 165.467 286.166 165.692 286.133 165.875C286.116 166.042 286.108 166.208 286.108 166.375C286.108 166.725 286.25 166.9 286.533 166.9C286.733 166.9 287 166.8 287.333 166.6C287.683 166.383 288.033 166.067 288.383 165.65L288.658 165.9C288.258 166.567 287.716 167.15 287.033 167.65C286.35 168.133 285.625 168.375 284.858 168.375C284.308 168.375 283.875 168.2 283.558 167.85C283.241 167.483 283.083 167.017 283.083 166.45C283.083 166.167 283.108 165.833 283.158 165.45C282.475 166.317 281.725 167.025 280.908 167.575C280.108 168.108 279.35 168.375 278.633 168.375ZM279.158 164.1C279.158 164.933 279.291 165.533 279.558 165.9C279.825 166.267 280.175 166.45 280.608 166.45C281.375 166.45 282.258 165.867 283.258 164.7C283.275 164.617 283.291 164.525 283.308 164.425L284.833 157.05C284.416 156.667 283.925 156.475 283.358 156.475C282.941 156.475 282.55 156.575 282.183 156.775C281.833 156.958 281.5 157.225 281.183 157.575C280.8 158.008 280.45 158.592 280.133 159.325C279.833 160.042 279.591 160.825 279.408 161.675C279.241 162.508 279.158 163.317 279.158 164.1ZM294.605 168.375C293.355 168.375 292.338 167.967 291.555 167.15C290.772 166.333 290.38 165.175 290.38 163.675C290.38 162.608 290.563 161.592 290.93 160.625C291.297 159.658 291.805 158.8 292.455 158.05C293.122 157.283 293.888 156.683 294.755 156.25C295.622 155.817 296.563 155.6 297.58 155.6C298.63 155.6 299.43 155.842 299.98 156.325C300.547 156.792 300.83 157.417 300.83 158.2C300.83 158.85 300.522 159.492 299.905 160.125C299.305 160.758 298.455 161.333 297.355 161.85C296.255 162.35 294.963 162.733 293.48 163C293.497 164.15 293.747 164.992 294.23 165.525C294.713 166.058 295.38 166.325 296.23 166.325C296.947 166.325 297.605 166.133 298.205 165.75C298.805 165.35 299.313 164.883 299.73 164.35L299.98 164.525C299.647 165.175 299.213 165.792 298.68 166.375C298.163 166.958 297.563 167.442 296.88 167.825C296.197 168.192 295.438 168.375 294.605 168.375ZM297.405 156.275C297.022 156.275 296.605 156.442 296.155 156.775C295.722 157.108 295.305 157.567 294.905 158.15C294.522 158.717 294.197 159.375 293.93 160.125C293.68 160.858 293.53 161.642 293.48 162.475C295.313 161.975 296.613 161.317 297.38 160.5C298.163 159.683 298.555 158.758 298.555 157.725C298.555 157.225 298.447 156.858 298.23 156.625C298.013 156.392 297.738 156.275 297.405 156.275ZM304.606 168.375C304.09 168.375 303.656 168.242 303.306 167.975C302.973 167.692 302.806 167.283 302.806 166.75C302.806 166.417 302.84 166.058 302.906 165.675C302.973 165.275 303.048 164.85 303.131 164.4L304.856 156.5H302.781L302.856 156.2L303.756 156.1C304.223 156.05 304.631 155.933 304.981 155.75C305.331 155.567 305.665 155.308 305.981 154.975L308.381 152.55H308.756L308.056 155.975H310.781L310.656 156.5H307.931L306.206 164.825C306.14 165.142 306.09 165.417 306.056 165.65C306.023 165.867 306.006 166.05 306.006 166.2C306.006 166.367 306.056 166.5 306.156 166.6C306.256 166.7 306.365 166.75 306.481 166.75C306.715 166.75 306.965 166.658 307.231 166.475C307.498 166.275 307.831 165.983 308.231 165.6L308.531 165.85C308.115 166.467 307.573 167.042 306.906 167.575C306.24 168.108 305.473 168.375 304.606 168.375ZM313.658 168.375C313.191 168.375 312.749 168.267 312.333 168.05C311.916 167.833 311.574 167.475 311.308 166.975C311.058 166.475 310.933 165.817 310.933 165C310.933 164.117 311.108 163.233 311.458 162.35C311.808 161.45 312.274 160.6 312.858 159.8C313.441 158.983 314.091 158.267 314.808 157.65C315.524 157.017 316.266 156.517 317.033 156.15C317.799 155.783 318.524 155.6 319.208 155.6C319.541 155.6 319.849 155.667 320.133 155.8C320.433 155.917 320.716 156.083 320.983 156.3L323.008 155.525L323.208 155.65L321.033 165.225C320.916 165.692 320.858 166.075 320.858 166.375C320.858 166.725 321.016 166.9 321.333 166.9C321.566 166.9 321.833 166.792 322.133 166.575C322.449 166.358 322.808 166.067 323.208 165.7L323.408 165.9C323.158 166.3 322.841 166.692 322.458 167.075C322.091 167.442 321.674 167.75 321.208 168C320.758 168.25 320.274 168.375 319.758 168.375C319.191 168.375 318.733 168.208 318.383 167.875C318.033 167.525 317.858 166.992 317.858 166.275C317.858 166.042 317.866 165.817 317.883 165.6C317.216 166.35 316.508 167 315.758 167.55C315.024 168.1 314.324 168.375 313.658 168.375ZM313.883 163.875C313.883 164.758 314.024 165.4 314.308 165.8C314.608 166.183 314.999 166.375 315.483 166.375C315.883 166.375 316.283 166.25 316.683 166C317.083 165.75 317.516 165.392 317.983 164.925C318.016 164.725 318.058 164.517 318.108 164.3L319.683 157.1C319.466 156.833 319.208 156.65 318.908 156.55C318.608 156.45 318.341 156.4 318.108 156.4C317.391 156.4 316.641 156.825 315.858 157.675C315.241 158.358 314.758 159.258 314.408 160.375C314.058 161.492 313.883 162.658 313.883 163.875ZM329.673 154.2C329.206 154.2 328.798 154.05 328.448 153.75C328.114 153.433 327.948 153.017 327.948 152.5C327.948 151.917 328.148 151.442 328.548 151.075C328.964 150.692 329.431 150.5 329.948 150.5C330.448 150.5 330.856 150.658 331.173 150.975C331.489 151.292 331.648 151.7 331.648 152.2C331.648 152.767 331.448 153.242 331.048 153.625C330.648 154.008 330.189 154.2 329.673 154.2ZM327.348 168.375C326.831 168.375 326.406 168.242 326.073 167.975C325.739 167.708 325.573 167.317 325.573 166.8C325.573 166.5 325.606 166.142 325.673 165.725C325.739 165.308 325.814 164.892 325.898 164.475L327.073 158.85C327.223 158.167 326.981 157.683 326.348 157.4L325.948 157.2L325.973 156.925L330.673 155.575L330.923 155.8L328.973 164.85C328.906 165.15 328.856 165.408 328.823 165.625C328.789 165.825 328.773 166.025 328.773 166.225C328.773 166.592 328.939 166.775 329.273 166.775C329.523 166.775 329.773 166.7 330.023 166.55C330.273 166.383 330.589 166.117 330.973 165.75L331.198 165.975C330.781 166.592 330.248 167.15 329.598 167.65C328.964 168.133 328.214 168.375 327.348 168.375ZM334.826 168.375C334.276 168.375 333.835 168.233 333.501 167.95C333.185 167.667 333.026 167.258 333.026 166.725C333.026 166.425 333.06 166.067 333.126 165.65C333.193 165.217 333.293 164.667 333.426 164L334.851 157.1C334.985 156.467 335.093 155.892 335.176 155.375C335.276 154.858 335.385 154.275 335.501 153.625C335.618 152.958 335.351 152.508 334.701 152.275L334.276 152.125L334.326 151.875L339.226 150.475L339.376 150.65L336.301 165.15C336.251 165.4 336.21 165.625 336.176 165.825C336.143 166.008 336.126 166.167 336.126 166.3C336.126 166.667 336.285 166.85 336.601 166.85C337.018 166.85 337.626 166.475 338.426 165.725L338.676 165.925C338.26 166.542 337.735 167.108 337.101 167.625C336.468 168.125 335.71 168.375 334.826 168.375ZM343.487 168.375C342.437 168.375 341.587 168.167 340.937 167.75C340.287 167.333 339.962 166.742 339.962 165.975C339.962 165.575 340.104 165.225 340.387 164.925C340.671 164.625 341.037 164.475 341.487 164.475C342.321 164.475 342.837 164.983 343.037 166L343.187 166.7C343.271 167.05 343.371 167.333 343.487 167.55C343.621 167.767 343.871 167.875 344.237 167.875C344.654 167.875 345.021 167.7 345.337 167.35C345.654 167 345.812 166.517 345.812 165.9C345.812 165.433 345.662 164.983 345.362 164.55C345.079 164.117 344.596 163.642 343.912 163.125C343.229 162.592 342.679 162.042 342.262 161.475C341.846 160.892 341.637 160.2 341.637 159.4C341.637 158.7 341.812 158.067 342.162 157.5C342.529 156.917 343.054 156.458 343.737 156.125C344.421 155.775 345.229 155.6 346.162 155.6C347.246 155.6 348.096 155.817 348.712 156.25C349.346 156.683 349.662 157.242 349.662 157.925C349.662 158.292 349.554 158.6 349.337 158.85C349.121 159.083 348.796 159.2 348.362 159.2C347.562 159.2 347.021 158.717 346.737 157.75L346.487 157.05C346.404 156.717 346.304 156.483 346.187 156.35C346.071 156.217 345.887 156.15 345.637 156.15C345.371 156.15 345.096 156.3 344.812 156.6C344.529 156.883 344.387 157.342 344.387 157.975C344.387 158.575 344.562 159.125 344.912 159.625C345.279 160.108 345.821 160.617 346.537 161.15C347.271 161.7 347.804 162.233 348.137 162.75C348.487 163.267 348.662 163.892 348.662 164.625C348.662 165.308 348.462 165.933 348.062 166.5C347.662 167.067 347.079 167.525 346.312 167.875C345.546 168.208 344.604 168.375 343.487 168.375ZM359.786 168.375C359.319 168.375 358.877 168.267 358.461 168.05C358.044 167.833 357.702 167.475 357.436 166.975C357.186 166.475 357.061 165.817 357.061 165C357.061 164.117 357.236 163.233 357.586 162.35C357.936 161.45 358.402 160.6 358.986 159.8C359.569 158.983 360.219 158.267 360.936 157.65C361.652 157.017 362.394 156.517 363.161 156.15C363.927 155.783 364.652 155.6 365.336 155.6C365.669 155.6 365.977 155.667 366.261 155.8C366.561 155.917 366.844 156.083 367.111 156.3L369.136 155.525L369.336 155.65L367.161 165.225C367.044 165.692 366.986 166.075 366.986 166.375C366.986 166.725 367.144 166.9 367.461 166.9C367.694 166.9 367.961 166.792 368.261 166.575C368.577 166.358 368.936 166.067 369.336 165.7L369.536 165.9C369.286 166.3 368.969 166.692 368.586 167.075C368.219 167.442 367.802 167.75 367.336 168C366.886 168.25 366.402 168.375 365.886 168.375C365.319 168.375 364.861 168.208 364.511 167.875C364.161 167.525 363.986 166.992 363.986 166.275C363.986 166.042 363.994 165.817 364.011 165.6C363.344 166.35 362.636 167 361.886 167.55C361.152 168.1 360.452 168.375 359.786 168.375ZM360.011 163.875C360.011 164.758 360.152 165.4 360.436 165.8C360.736 166.183 361.127 166.375 361.611 166.375C362.011 166.375 362.411 166.25 362.811 166C363.211 165.75 363.644 165.392 364.111 164.925C364.144 164.725 364.186 164.517 364.236 164.3L365.811 157.1C365.594 156.833 365.336 156.65 365.036 156.55C364.736 156.45 364.469 156.4 364.236 156.4C363.519 156.4 362.769 156.825 361.986 157.675C361.369 158.358 360.886 159.258 360.536 160.375C360.186 161.492 360.011 162.658 360.011 163.875ZM371.525 168.175L371.275 168L373.175 158.85C373.259 158.417 373.234 158.1 373.1 157.9C372.967 157.683 372.742 157.508 372.425 157.375L372.05 157.2L372.1 156.95L376.45 155.575L376.7 155.8L376.025 159.925C376.375 159.125 376.784 158.4 377.25 157.75C377.717 157.1 378.209 156.583 378.725 156.2C379.242 155.8 379.759 155.6 380.275 155.6C380.792 155.6 381.209 155.742 381.525 156.025C381.842 156.292 382 156.65 382 157.1C382 157.567 381.859 157.95 381.575 158.25C381.309 158.55 380.942 158.7 380.475 158.7C380.109 158.7 379.759 158.608 379.425 158.425C379.092 158.225 378.767 157.942 378.45 157.575C377.867 158.008 377.367 158.575 376.95 159.275C376.534 159.958 376.15 160.708 375.8 161.525L375.55 162.675C375.367 163.558 375.192 164.442 375.025 165.325C374.859 166.208 374.692 167.1 374.525 168L371.525 168.175ZM386.312 168.375C385.062 168.375 384.045 167.967 383.262 167.15C382.479 166.333 382.087 165.175 382.087 163.675C382.087 162.608 382.27 161.592 382.637 160.625C383.004 159.658 383.512 158.8 384.162 158.05C384.829 157.283 385.595 156.683 386.462 156.25C387.329 155.817 388.27 155.6 389.287 155.6C390.337 155.6 391.137 155.842 391.687 156.325C392.254 156.792 392.537 157.417 392.537 158.2C392.537 158.85 392.229 159.492 391.612 160.125C391.012 160.758 390.162 161.333 389.062 161.85C387.962 162.35 386.67 162.733 385.187 163C385.204 164.15 385.454 164.992 385.937 165.525C386.42 166.058 387.087 166.325 387.937 166.325C388.654 166.325 389.312 166.133 389.912 165.75C390.512 165.35 391.02 164.883 391.437 164.35L391.687 164.525C391.354 165.175 390.92 165.792 390.387 166.375C389.87 166.958 389.27 167.442 388.587 167.825C387.904 168.192 387.145 168.375 386.312 168.375ZM389.112 156.275C388.729 156.275 388.312 156.442 387.862 156.775C387.429 157.108 387.012 157.567 386.612 158.15C386.229 158.717 385.904 159.375 385.637 160.125C385.387 160.858 385.237 161.642 385.187 162.475C387.02 161.975 388.32 161.317 389.087 160.5C389.87 159.683 390.262 158.758 390.262 157.725C390.262 157.225 390.154 156.858 389.937 156.625C389.72 156.392 389.445 156.275 389.112 156.275ZM399.856 168.175L399.631 168L401.556 158.8C401.706 158.15 401.473 157.683 400.856 157.4L400.431 157.2L400.456 156.95L405.106 155.575L405.331 155.775L404.756 158.8C405.623 157.817 406.506 157.042 407.406 156.475C408.306 155.892 409.156 155.6 409.956 155.6C410.489 155.6 410.931 155.767 411.281 156.1C411.631 156.417 411.806 156.917 411.806 157.6C411.806 157.95 411.773 158.317 411.706 158.7C411.639 159.067 411.556 159.45 411.456 159.85L410.131 165.175C410.064 165.442 410.014 165.667 409.981 165.85C409.948 166.017 409.931 166.167 409.931 166.3C409.931 166.65 410.073 166.825 410.356 166.825C410.823 166.825 411.414 166.45 412.131 165.7L412.381 165.95C411.964 166.567 411.414 167.125 410.731 167.625C410.048 168.125 409.289 168.375 408.456 168.375C407.906 168.375 407.481 168.25 407.181 168C406.881 167.733 406.731 167.367 406.731 166.9C406.731 166.55 406.773 166.192 406.856 165.825C406.939 165.442 407.031 165.05 407.131 164.65L408.106 160.75C408.239 160.217 408.348 159.742 408.431 159.325C408.514 158.908 408.556 158.525 408.556 158.175C408.556 157.875 408.489 157.667 408.356 157.55C408.223 157.417 408.039 157.35 407.806 157.35C407.406 157.35 406.931 157.525 406.381 157.875C405.848 158.225 405.256 158.775 404.606 159.525L403.906 162.675C403.723 163.558 403.548 164.442 403.381 165.325C403.214 166.208 403.048 167.1 402.881 168L399.856 168.175ZM418.949 168.375C418.083 168.375 417.291 168.208 416.574 167.875C415.858 167.525 415.291 167.008 414.874 166.325C414.458 165.625 414.249 164.742 414.249 163.675C414.249 162.608 414.424 161.592 414.774 160.625C415.141 159.658 415.649 158.8 416.299 158.05C416.949 157.283 417.708 156.683 418.574 156.25C419.441 155.817 420.383 155.6 421.399 155.6C422.283 155.6 423.066 155.775 423.749 156.125C424.449 156.458 424.999 156.967 425.399 157.65C425.816 158.333 426.024 159.208 426.024 160.275C426.024 161.325 425.841 162.342 425.474 163.325C425.124 164.292 424.624 165.158 423.974 165.925C423.341 166.675 422.591 167.275 421.724 167.725C420.874 168.158 419.949 168.375 418.949 168.375ZM419.249 167.875C419.766 167.875 420.233 167.642 420.649 167.175C421.083 166.692 421.458 166.058 421.774 165.275C422.091 164.475 422.333 163.6 422.499 162.65C422.666 161.683 422.749 160.725 422.749 159.775C422.749 158.392 422.608 157.433 422.324 156.9C422.041 156.367 421.674 156.1 421.224 156.1C420.691 156.1 420.199 156.333 419.749 156.8C419.299 157.267 418.908 157.892 418.574 158.675C418.241 159.458 417.983 160.325 417.799 161.275C417.616 162.225 417.524 163.175 417.524 164.125C417.524 165.542 417.691 166.525 418.024 167.075C418.358 167.608 418.766 167.875 419.249 167.875ZM430.235 168.375C429.719 168.375 429.285 168.242 428.935 167.975C428.602 167.692 428.435 167.283 428.435 166.75C428.435 166.417 428.469 166.058 428.535 165.675C428.602 165.275 428.677 164.85 428.76 164.4L430.485 156.5H428.41L428.485 156.2L429.385 156.1C429.852 156.05 430.26 155.933 430.61 155.75C430.96 155.567 431.294 155.308 431.61 154.975L434.01 152.55H434.385L433.685 155.975H436.41L436.285 156.5H433.56L431.835 164.825C431.769 165.142 431.719 165.417 431.685 165.65C431.652 165.867 431.635 166.05 431.635 166.2C431.635 166.367 431.685 166.5 431.785 166.6C431.885 166.7 431.994 166.75 432.11 166.75C432.344 166.75 432.594 166.658 432.86 166.475C433.127 166.275 433.46 165.983 433.86 165.6L434.16 165.85C433.744 166.467 433.202 167.042 432.535 167.575C431.869 168.108 431.102 168.375 430.235 168.375ZM445.298 168.375C444.781 168.375 444.348 168.242 443.998 167.975C443.664 167.692 443.498 167.283 443.498 166.75C443.498 166.417 443.531 166.058 443.598 165.675C443.664 165.275 443.739 164.85 443.823 164.4L445.548 156.5H443.473L443.548 156.2L444.448 156.1C444.914 156.05 445.323 155.933 445.673 155.75C446.023 155.567 446.356 155.308 446.673 154.975L449.073 152.55H449.448L448.748 155.975H451.473L451.348 156.5H448.623L446.898 164.825C446.831 165.142 446.781 165.417 446.748 165.65C446.714 165.867 446.698 166.05 446.698 166.2C446.698 166.367 446.748 166.5 446.848 166.6C446.948 166.7 447.056 166.75 447.173 166.75C447.406 166.75 447.656 166.658 447.923 166.475C448.189 166.275 448.523 165.983 448.923 165.6L449.223 165.85C448.806 166.467 448.264 167.042 447.598 167.575C446.931 168.108 446.164 168.375 445.298 168.375ZM451.421 168.15L451.271 168L453.546 157.1C453.68 156.467 453.796 155.9 453.896 155.4C453.996 154.883 454.105 154.308 454.221 153.675C454.355 152.958 454.08 152.483 453.396 152.25L452.996 152.125L453.046 151.875L457.821 150.475L457.996 150.65L456.296 158.625C457.13 157.758 458.013 157.042 458.946 156.475C459.896 155.892 460.771 155.6 461.571 155.6C462.105 155.6 462.538 155.767 462.871 156.1C463.221 156.417 463.396 156.917 463.396 157.6C463.396 157.95 463.363 158.317 463.296 158.7C463.23 159.067 463.146 159.45 463.046 159.85L461.796 164.95C461.73 165.267 461.663 165.542 461.596 165.775C461.53 165.992 461.496 166.167 461.496 166.3C461.496 166.65 461.646 166.825 461.946 166.825C462.38 166.825 462.988 166.458 463.771 165.725L463.996 165.95C463.596 166.567 463.055 167.125 462.371 167.625C461.688 168.125 460.913 168.375 460.046 168.375C459.496 168.375 459.071 168.25 458.771 168C458.471 167.733 458.321 167.367 458.321 166.9C458.321 166.55 458.363 166.192 458.446 165.825C458.53 165.442 458.63 165.05 458.746 164.65L459.871 160.25C459.988 159.8 460.088 159.392 460.171 159.025C460.271 158.642 460.321 158.317 460.321 158.05C460.321 157.467 460.046 157.175 459.496 157.175C458.68 157.175 457.605 157.842 456.271 159.175L455.521 162.65C455.305 163.667 455.113 164.592 454.946 165.425C454.796 166.242 454.646 167.1 454.496 168L451.421 168.15ZM470.219 168.375C468.969 168.375 467.953 167.967 467.169 167.15C466.386 166.333 465.994 165.175 465.994 163.675C465.994 162.608 466.178 161.592 466.544 160.625C466.911 159.658 467.419 158.8 468.069 158.05C468.736 157.283 469.503 156.683 470.369 156.25C471.236 155.817 472.178 155.6 473.194 155.6C474.244 155.6 475.044 155.842 475.594 156.325C476.161 156.792 476.444 157.417 476.444 158.2C476.444 158.85 476.136 159.492 475.519 160.125C474.919 160.758 474.069 161.333 472.969 161.85C471.869 162.35 470.578 162.733 469.094 163C469.111 164.15 469.361 164.992 469.844 165.525C470.328 166.058 470.994 166.325 471.844 166.325C472.561 166.325 473.219 166.133 473.819 165.75C474.419 165.35 474.928 164.883 475.344 164.35L475.594 164.525C475.261 165.175 474.828 165.792 474.294 166.375C473.778 166.958 473.178 167.442 472.494 167.825C471.811 168.192 471.053 168.375 470.219 168.375ZM473.019 156.275C472.636 156.275 472.219 156.442 471.769 156.775C471.336 157.108 470.919 157.567 470.519 158.15C470.136 158.717 469.811 159.375 469.544 160.125C469.294 160.858 469.144 161.642 469.094 162.475C470.928 161.975 472.228 161.317 472.994 160.5C473.778 159.683 474.169 158.758 474.169 157.725C474.169 157.225 474.061 156.858 473.844 156.625C473.628 156.392 473.353 156.275 473.019 156.275ZM486.338 168.375C485.672 168.375 485.08 168.117 484.563 167.6C484.063 167.083 483.813 166.183 483.813 164.9C483.813 164.033 483.98 163.158 484.313 162.275C484.647 161.392 485.088 160.558 485.638 159.775C486.205 158.975 486.838 158.258 487.538 157.625C488.255 156.992 488.997 156.5 489.763 156.15C490.53 155.783 491.28 155.6 492.013 155.6C492.347 155.6 492.663 155.65 492.963 155.75L493.338 153.875C493.488 153.125 493.213 152.617 492.513 152.35L491.963 152.125L492.013 151.875L496.863 150.475L497.038 150.65L493.963 165.2C493.913 165.467 493.872 165.692 493.838 165.875C493.822 166.042 493.813 166.208 493.813 166.375C493.813 166.725 493.955 166.9 494.238 166.9C494.438 166.9 494.705 166.8 495.038 166.6C495.388 166.383 495.738 166.067 496.088 165.65L496.363 165.9C495.963 166.567 495.422 167.15 494.738 167.65C494.055 168.133 493.33 168.375 492.563 168.375C492.013 168.375 491.58 168.2 491.263 167.85C490.947 167.483 490.788 167.017 490.788 166.45C490.788 166.167 490.813 165.833 490.863 165.45C490.18 166.317 489.43 167.025 488.613 167.575C487.813 168.108 487.055 168.375 486.338 168.375ZM486.863 164.1C486.863 164.933 486.997 165.533 487.263 165.9C487.53 166.267 487.88 166.45 488.313 166.45C489.08 166.45 489.963 165.867 490.963 164.7C490.98 164.617 490.997 164.525 491.013 164.425L492.538 157.05C492.122 156.667 491.63 156.475 491.063 156.475C490.647 156.475 490.255 156.575 489.888 156.775C489.538 156.958 489.205 157.225 488.888 157.575C488.505 158.008 488.155 158.592 487.838 159.325C487.538 160.042 487.297 160.825 487.113 161.675C486.947 162.508 486.863 163.317 486.863 164.1ZM502.31 168.375C501.06 168.375 500.043 167.967 499.26 167.15C498.477 166.333 498.085 165.175 498.085 163.675C498.085 162.608 498.268 161.592 498.635 160.625C499.002 159.658 499.51 158.8 500.16 158.05C500.827 157.283 501.593 156.683 502.46 156.25C503.327 155.817 504.268 155.6 505.285 155.6C506.335 155.6 507.135 155.842 507.685 156.325C508.252 156.792 508.535 157.417 508.535 158.2C508.535 158.85 508.227 159.492 507.61 160.125C507.01 160.758 506.16 161.333 505.06 161.85C503.96 162.35 502.668 162.733 501.185 163C501.202 164.15 501.452 164.992 501.935 165.525C502.418 166.058 503.085 166.325 503.935 166.325C504.652 166.325 505.31 166.133 505.91 165.75C506.51 165.35 507.018 164.883 507.435 164.35L507.685 164.525C507.352 165.175 506.918 165.792 506.385 166.375C505.868 166.958 505.268 167.442 504.585 167.825C503.902 168.192 503.143 168.375 502.31 168.375ZM505.11 156.275C504.727 156.275 504.31 156.442 503.86 156.775C503.427 157.108 503.01 157.567 502.61 158.15C502.227 158.717 501.902 159.375 501.635 160.125C501.385 160.858 501.235 161.642 501.185 162.475C503.018 161.975 504.318 161.317 505.085 160.5C505.868 159.683 506.26 158.758 506.26 157.725C506.26 157.225 506.152 156.858 505.935 156.625C505.718 156.392 505.443 156.275 505.11 156.275ZM512.311 168.375C511.795 168.375 511.361 168.242 511.011 167.975C510.678 167.692 510.511 167.283 510.511 166.75C510.511 166.417 510.545 166.058 510.611 165.675C510.678 165.275 510.753 164.85 510.836 164.4L512.561 156.5H510.486L510.561 156.2L511.461 156.1C511.928 156.05 512.336 155.933 512.686 155.75C513.036 155.567 513.37 155.308 513.686 154.975L516.086 152.55H516.461L515.761 155.975H518.486L518.361 156.5H515.636L513.911 164.825C513.845 165.142 513.795 165.417 513.761 165.65C513.728 165.867 513.711 166.05 513.711 166.2C513.711 166.367 513.761 166.5 513.861 166.6C513.961 166.7 514.07 166.75 514.186 166.75C514.42 166.75 514.67 166.658 514.936 166.475C515.203 166.275 515.536 165.983 515.936 165.6L516.236 165.85C515.82 166.467 515.278 167.042 514.611 167.575C513.945 168.108 513.178 168.375 512.311 168.375ZM521.363 168.375C520.896 168.375 520.454 168.267 520.038 168.05C519.621 167.833 519.279 167.475 519.013 166.975C518.763 166.475 518.638 165.817 518.638 165C518.638 164.117 518.813 163.233 519.163 162.35C519.513 161.45 519.979 160.6 520.563 159.8C521.146 158.983 521.796 158.267 522.513 157.65C523.229 157.017 523.971 156.517 524.738 156.15C525.504 155.783 526.229 155.6 526.913 155.6C527.246 155.6 527.554 155.667 527.838 155.8C528.138 155.917 528.421 156.083 528.688 156.3L530.713 155.525L530.913 155.65L528.738 165.225C528.621 165.692 528.563 166.075 528.563 166.375C528.563 166.725 528.721 166.9 529.038 166.9C529.271 166.9 529.538 166.792 529.838 166.575C530.154 166.358 530.513 166.067 530.913 165.7L531.113 165.9C530.863 166.3 530.546 166.692 530.163 167.075C529.796 167.442 529.379 167.75 528.913 168C528.463 168.25 527.979 168.375 527.463 168.375C526.896 168.375 526.438 168.208 526.088 167.875C525.738 167.525 525.563 166.992 525.563 166.275C525.563 166.042 525.571 165.817 525.588 165.6C524.921 166.35 524.213 167 523.463 167.55C522.729 168.1 522.029 168.375 521.363 168.375ZM521.588 163.875C521.588 164.758 521.729 165.4 522.013 165.8C522.313 166.183 522.704 166.375 523.188 166.375C523.588 166.375 523.988 166.25 524.388 166C524.788 165.75 525.221 165.392 525.688 164.925C525.721 164.725 525.763 164.517 525.813 164.3L527.388 157.1C527.171 156.833 526.913 156.65 526.613 156.55C526.313 156.45 526.046 156.4 525.813 156.4C525.096 156.4 524.346 156.825 523.563 157.675C522.946 158.358 522.463 159.258 522.113 160.375C521.763 161.492 521.588 162.658 521.588 163.875ZM537.378 154.2C536.911 154.2 536.503 154.05 536.153 153.75C535.819 153.433 535.653 153.017 535.653 152.5C535.653 151.917 535.853 151.442 536.253 151.075C536.669 150.692 537.136 150.5 537.653 150.5C538.153 150.5 538.561 150.658 538.878 150.975C539.194 151.292 539.353 151.7 539.353 152.2C539.353 152.767 539.153 153.242 538.753 153.625C538.353 154.008 537.894 154.2 537.378 154.2ZM535.053 168.375C534.536 168.375 534.111 168.242 533.778 167.975C533.444 167.708 533.278 167.317 533.278 166.8C533.278 166.5 533.311 166.142 533.378 165.725C533.444 165.308 533.519 164.892 533.603 164.475L534.778 158.85C534.928 158.167 534.686 157.683 534.053 157.4L533.653 157.2L533.678 156.925L538.378 155.575L538.628 155.8L536.678 164.85C536.611 165.15 536.561 165.408 536.528 165.625C536.494 165.825 536.478 166.025 536.478 166.225C536.478 166.592 536.644 166.775 536.978 166.775C537.228 166.775 537.478 166.7 537.728 166.55C537.978 166.383 538.294 166.117 538.678 165.75L538.903 165.975C538.486 166.592 537.953 167.15 537.303 167.65C536.669 168.133 535.919 168.375 535.053 168.375ZM542.532 168.375C541.982 168.375 541.54 168.233 541.207 167.95C540.89 167.667 540.732 167.258 540.732 166.725C540.732 166.425 540.765 166.067 540.832 165.65C540.898 165.217 540.998 164.667 541.132 164L542.557 157.1C542.69 156.467 542.798 155.892 542.882 155.375C542.982 154.858 543.09 154.275 543.207 153.625C543.323 152.958 543.057 152.508 542.407 152.275L541.982 152.125L542.032 151.875L546.932 150.475L547.082 150.65L544.007 165.15C543.957 165.4 543.915 165.625 543.882 165.825C543.848 166.008 543.832 166.167 543.832 166.3C543.832 166.667 543.99 166.85 544.307 166.85C544.723 166.85 545.332 166.475 546.132 165.725L546.382 165.925C545.965 166.542 545.44 167.108 544.807 167.625C544.173 168.125 543.415 168.375 542.532 168.375ZM551.192 168.375C550.142 168.375 549.292 168.167 548.642 167.75C547.992 167.333 547.667 166.742 547.667 165.975C547.667 165.575 547.809 165.225 548.092 164.925C548.376 164.625 548.742 164.475 549.192 164.475C550.026 164.475 550.542 164.983 550.742 166L550.892 166.7C550.976 167.05 551.076 167.333 551.192 167.55C551.326 167.767 551.576 167.875 551.942 167.875C552.359 167.875 552.726 167.7 553.042 167.35C553.359 167 553.517 166.517 553.517 165.9C553.517 165.433 553.367 164.983 553.067 164.55C552.784 164.117 552.301 163.642 551.617 163.125C550.934 162.592 550.384 162.042 549.967 161.475C549.551 160.892 549.342 160.2 549.342 159.4C549.342 158.7 549.517 158.067 549.867 157.5C550.234 156.917 550.759 156.458 551.442 156.125C552.126 155.775 552.934 155.6 553.867 155.6C554.951 155.6 555.801 155.817 556.417 156.25C557.051 156.683 557.367 157.242 557.367 157.925C557.367 158.292 557.259 158.6 557.042 158.85C556.826 159.083 556.501 159.2 556.067 159.2C555.267 159.2 554.726 158.717 554.442 157.75L554.192 157.05C554.109 156.717 554.009 156.483 553.892 156.35C553.776 156.217 553.592 156.15 553.342 156.15C553.076 156.15 552.801 156.3 552.517 156.6C552.234 156.883 552.092 157.342 552.092 157.975C552.092 158.575 552.267 159.125 552.617 159.625C552.984 160.108 553.526 160.617 554.242 161.15C554.976 161.7 555.509 162.233 555.842 162.75C556.192 163.267 556.367 163.892 556.367 164.625C556.367 165.308 556.167 165.933 555.767 166.5C555.367 167.067 554.784 167.525 554.017 167.875C553.251 168.208 552.309 168.375 551.192 168.375ZM561.067 168.325C560.5 168.325 560.033 168.15 559.667 167.8C559.317 167.433 559.142 167 559.142 166.5C559.142 165.867 559.367 165.333 559.817 164.9C560.283 164.467 560.817 164.25 561.417 164.25C561.983 164.25 562.442 164.433 562.792 164.8C563.158 165.167 563.342 165.608 563.342 166.125C563.342 166.742 563.108 167.267 562.642 167.7C562.192 168.117 561.667 168.325 561.067 168.325ZM279.013 199L279.063 198.75L279.663 198.525C280.43 198.208 280.897 197.642 281.063 196.825L282.288 190.25C282.422 189.55 282.563 188.775 282.713 187.925C282.88 187.058 283.038 186.2 283.188 185.35C283.338 184.483 283.472 183.7 283.588 183H282.513C281.913 183 281.397 183.108 280.963 183.325C280.53 183.542 280.138 183.892 279.788 184.375L277.788 187.1H277.538L278.463 182.5H292.313L291.513 187.1H291.263L290.338 184.575C289.972 183.525 289.213 183 288.063 183H287.038L285.488 191.225C285.322 192.075 285.147 192.992 284.963 193.975C284.797 194.942 284.63 195.883 284.463 196.8C284.313 197.667 284.638 198.267 285.438 198.6L285.763 198.75L285.713 199H279.013ZM292.004 199.15L291.854 199L294.129 188.1C294.263 187.467 294.379 186.9 294.479 186.4C294.579 185.883 294.688 185.308 294.804 184.675C294.938 183.958 294.663 183.483 293.979 183.25L293.579 183.125L293.629 182.875L298.404 181.475L298.579 181.65L296.879 189.625C297.713 188.758 298.596 188.042 299.529 187.475C300.479 186.892 301.354 186.6 302.154 186.6C302.688 186.6 303.121 186.767 303.454 187.1C303.804 187.417 303.979 187.917 303.979 188.6C303.979 188.95 303.946 189.317 303.879 189.7C303.813 190.067 303.729 190.45 303.629 190.85L302.379 195.95C302.313 196.267 302.246 196.542 302.179 196.775C302.113 196.992 302.079 197.167 302.079 197.3C302.079 197.65 302.229 197.825 302.529 197.825C302.963 197.825 303.571 197.458 304.354 196.725L304.579 196.95C304.179 197.567 303.638 198.125 302.954 198.625C302.271 199.125 301.496 199.375 300.629 199.375C300.079 199.375 299.654 199.25 299.354 199C299.054 198.733 298.904 198.367 298.904 197.9C298.904 197.55 298.946 197.192 299.029 196.825C299.113 196.442 299.213 196.05 299.329 195.65L300.454 191.25C300.571 190.8 300.671 190.392 300.754 190.025C300.854 189.642 300.904 189.317 300.904 189.05C300.904 188.467 300.629 188.175 300.079 188.175C299.263 188.175 298.188 188.842 296.854 190.175L296.104 193.65C295.888 194.667 295.696 195.592 295.529 196.425C295.379 197.242 295.229 198.1 295.079 199L292.004 199.15ZM310.802 199.375C309.552 199.375 308.536 198.967 307.752 198.15C306.969 197.333 306.577 196.175 306.577 194.675C306.577 193.608 306.761 192.592 307.127 191.625C307.494 190.658 308.002 189.8 308.652 189.05C309.319 188.283 310.086 187.683 310.952 187.25C311.819 186.817 312.761 186.6 313.777 186.6C314.827 186.6 315.627 186.842 316.177 187.325C316.744 187.792 317.027 188.417 317.027 189.2C317.027 189.85 316.719 190.492 316.102 191.125C315.502 191.758 314.652 192.333 313.552 192.85C312.452 193.35 311.161 193.733 309.677 194C309.694 195.15 309.944 195.992 310.427 196.525C310.911 197.058 311.577 197.325 312.427 197.325C313.144 197.325 313.802 197.133 314.402 196.75C315.002 196.35 315.511 195.883 315.927 195.35L316.177 195.525C315.844 196.175 315.411 196.792 314.877 197.375C314.361 197.958 313.761 198.442 313.077 198.825C312.394 199.192 311.636 199.375 310.802 199.375ZM313.602 187.275C313.219 187.275 312.802 187.442 312.352 187.775C311.919 188.108 311.502 188.567 311.102 189.15C310.719 189.717 310.394 190.375 310.127 191.125C309.877 191.858 309.727 192.642 309.677 193.475C311.511 192.975 312.811 192.317 313.577 191.5C314.361 190.683 314.752 189.758 314.752 188.725C314.752 188.225 314.644 187.858 314.427 187.625C314.211 187.392 313.936 187.275 313.602 187.275ZM317.704 204.75C317.104 204.75 316.612 204.592 316.229 204.275C315.829 203.958 315.629 203.542 315.629 203.025C315.629 202.592 315.787 202.225 316.104 201.925C316.404 201.642 316.779 201.5 317.229 201.5C317.762 201.5 318.254 201.7 318.704 202.1C319.054 202.417 319.395 202.608 319.729 202.675C320.079 202.742 320.437 202.642 320.804 202.375C321.037 202.208 321.254 202.025 321.454 201.825C321.67 201.642 321.887 201.433 322.104 201.2C322.154 201.15 322.204 201.1 322.254 201.05C322.004 199.267 321.754 197.55 321.504 195.9C321.254 194.25 320.995 192.542 320.729 190.775C320.645 190.142 320.562 189.675 320.479 189.375C320.395 189.075 320.304 188.883 320.204 188.8C320.12 188.7 320.012 188.65 319.879 188.65C319.712 188.65 319.52 188.725 319.304 188.875C319.104 189.025 318.87 189.283 318.604 189.65L318.279 189.325C319.445 187.508 320.629 186.6 321.829 186.6C322.462 186.6 322.912 186.808 323.179 187.225C323.462 187.642 323.645 188.308 323.729 189.225C323.895 190.775 324.054 192.258 324.204 193.675C324.354 195.075 324.487 196.558 324.604 198.125C325.187 196.742 325.679 195.367 326.079 194C326.479 192.617 326.87 191.125 327.254 189.525C327.537 188.358 327.837 187.567 328.154 187.15C328.487 186.733 328.929 186.525 329.479 186.525C329.845 186.525 330.17 186.642 330.454 186.875C330.737 187.108 330.879 187.417 330.879 187.8C330.879 188.217 330.795 188.608 330.629 188.975C330.479 189.325 330.262 189.767 329.979 190.3C329.712 190.817 329.42 191.358 329.104 191.925C328.787 192.492 328.412 193.125 327.979 193.825C327.512 194.558 327.012 195.35 326.479 196.2C325.962 197.033 325.354 197.942 324.654 198.925C324.27 199.442 323.862 199.983 323.429 200.55C323.012 201.117 322.487 201.725 321.854 202.375C321.187 203.092 320.504 203.667 319.804 204.1C319.12 204.533 318.42 204.75 317.704 204.75ZM340.908 199L337.858 199.175L337.658 199L339.583 189.8C339.733 189.133 339.5 188.675 338.883 188.425L338.433 188.2L338.483 187.95L343.133 186.575L343.358 186.8L342.833 189.5C343.683 188.617 344.55 187.917 345.433 187.4C346.317 186.867 347.142 186.6 347.908 186.6C348.442 186.6 348.883 186.767 349.233 187.1C349.583 187.417 349.758 187.917 349.758 188.6C349.758 188.75 349.75 188.9 349.733 189.05C349.717 189.2 349.7 189.358 349.683 189.525C350.517 188.625 351.358 187.917 352.208 187.4C353.075 186.867 353.9 186.6 354.683 186.6C355.217 186.6 355.65 186.767 355.983 187.1C356.333 187.417 356.508 187.917 356.508 188.6C356.508 188.95 356.475 189.317 356.408 189.7C356.342 190.067 356.258 190.45 356.158 190.85L354.858 196.2C354.792 196.467 354.733 196.692 354.683 196.875C354.633 197.058 354.608 197.217 354.608 197.35C354.608 197.7 354.75 197.875 355.033 197.875C355.283 197.875 355.558 197.775 355.858 197.575C356.175 197.358 356.517 197.067 356.883 196.7L357.133 196.95C356.9 197.317 356.592 197.692 356.208 198.075C355.825 198.442 355.375 198.75 354.858 199C354.358 199.25 353.792 199.375 353.158 199.375C352.608 199.375 352.183 199.25 351.883 199C351.583 198.733 351.433 198.367 351.433 197.9C351.433 197.55 351.475 197.192 351.558 196.825C351.642 196.442 351.742 196.05 351.858 195.65L352.883 191.425C352.983 190.992 353.067 190.592 353.133 190.225C353.217 189.858 353.258 189.558 353.258 189.325C353.258 188.742 352.992 188.45 352.458 188.45C351.692 188.45 350.725 189.025 349.558 190.175C349.542 190.208 349.525 190.25 349.508 190.3C349.508 190.333 349.508 190.375 349.508 190.425L348.808 193.675C348.625 194.558 348.45 195.442 348.283 196.325C348.117 197.208 347.942 198.1 347.758 199L344.733 199.175L344.533 199L346.208 191.075C346.275 190.742 346.333 190.433 346.383 190.15C346.433 189.85 346.458 189.592 346.458 189.375C346.458 188.825 346.208 188.55 345.708 188.55C344.858 188.55 343.858 189.092 342.708 190.175L341.933 193.675C341.75 194.558 341.575 195.442 341.408 196.325C341.242 197.208 341.075 198.1 340.908 199ZM361.714 199.375C361.248 199.375 360.806 199.267 360.389 199.05C359.973 198.833 359.631 198.475 359.364 197.975C359.114 197.475 358.989 196.817 358.989 196C358.989 195.117 359.164 194.233 359.514 193.35C359.864 192.45 360.331 191.6 360.914 190.8C361.498 189.983 362.148 189.267 362.864 188.65C363.581 188.017 364.323 187.517 365.089 187.15C365.856 186.783 366.581 186.6 367.264 186.6C367.598 186.6 367.906 186.667 368.189 186.8C368.489 186.917 368.773 187.083 369.039 187.3L371.064 186.525L371.264 186.65L369.089 196.225C368.973 196.692 368.914 197.075 368.914 197.375C368.914 197.725 369.073 197.9 369.389 197.9C369.623 197.9 369.889 197.792 370.189 197.575C370.506 197.358 370.864 197.067 371.264 196.7L371.464 196.9C371.214 197.3 370.898 197.692 370.514 198.075C370.148 198.442 369.731 198.75 369.264 199C368.814 199.25 368.331 199.375 367.814 199.375C367.248 199.375 366.789 199.208 366.439 198.875C366.089 198.525 365.914 197.992 365.914 197.275C365.914 197.042 365.923 196.817 365.939 196.6C365.273 197.35 364.564 198 363.814 198.55C363.081 199.1 362.381 199.375 361.714 199.375ZM361.939 194.875C361.939 195.758 362.081 196.4 362.364 196.8C362.664 197.183 363.056 197.375 363.539 197.375C363.939 197.375 364.339 197.25 364.739 197C365.139 196.75 365.573 196.392 366.039 195.925C366.073 195.725 366.114 195.517 366.164 195.3L367.739 188.1C367.523 187.833 367.264 187.65 366.964 187.55C366.664 187.45 366.398 187.4 366.164 187.4C365.448 187.4 364.698 187.825 363.914 188.675C363.298 189.358 362.814 190.258 362.464 191.375C362.114 192.492 361.939 193.658 361.939 194.875ZM373.231 199.2L372.906 198.925L375.156 188.1C375.273 187.517 375.389 186.942 375.506 186.375C375.623 185.808 375.731 185.233 375.831 184.65C375.931 183.95 375.664 183.492 375.031 183.275L374.606 183.1L374.656 182.875L379.456 181.475L379.631 181.65L377.131 193.65C376.914 194.667 376.723 195.592 376.556 196.425C376.406 197.242 376.256 198.1 376.106 199L373.231 199.2ZM380.006 199C379.773 198.767 379.556 198.408 379.356 197.925C379.156 197.442 378.964 196.967 378.781 196.5L377.381 192.65L383.606 186.75C384.056 186.767 384.439 186.908 384.756 187.175C385.073 187.442 385.231 187.817 385.231 188.3C385.231 188.733 385.056 189.1 384.706 189.4C384.356 189.683 383.906 189.958 383.356 190.225L378.381 192.575L382.856 197.725C383.039 197.925 383.206 198.092 383.356 198.225C383.506 198.358 383.689 198.492 383.906 198.625L384.106 198.75L384.056 199H380.006ZM390.096 199.375C388.846 199.375 387.83 198.967 387.046 198.15C386.263 197.333 385.871 196.175 385.871 194.675C385.871 193.608 386.055 192.592 386.421 191.625C386.788 190.658 387.296 189.8 387.946 189.05C388.613 188.283 389.38 187.683 390.246 187.25C391.113 186.817 392.055 186.6 393.071 186.6C394.121 186.6 394.921 186.842 395.471 187.325C396.038 187.792 396.321 188.417 396.321 189.2C396.321 189.85 396.013 190.492 395.396 191.125C394.796 191.758 393.946 192.333 392.846 192.85C391.746 193.35 390.455 193.733 388.971 194C388.988 195.15 389.238 195.992 389.721 196.525C390.205 197.058 390.871 197.325 391.721 197.325C392.438 197.325 393.096 197.133 393.696 196.75C394.296 196.35 394.805 195.883 395.221 195.35L395.471 195.525C395.138 196.175 394.705 196.792 394.171 197.375C393.655 197.958 393.055 198.442 392.371 198.825C391.688 199.192 390.93 199.375 390.096 199.375ZM392.896 187.275C392.513 187.275 392.096 187.442 391.646 187.775C391.213 188.108 390.796 188.567 390.396 189.15C390.013 189.717 389.688 190.375 389.421 191.125C389.171 191.858 389.021 192.642 388.971 193.475C390.805 192.975 392.105 192.317 392.871 191.5C393.655 190.683 394.046 189.758 394.046 188.725C394.046 188.225 393.938 187.858 393.721 187.625C393.505 187.392 393.23 187.275 392.896 187.275ZM406.115 199.375C405.598 199.375 405.165 199.242 404.815 198.975C404.482 198.692 404.315 198.283 404.315 197.75C404.315 197.417 404.348 197.058 404.415 196.675C404.482 196.275 404.557 195.85 404.64 195.4L406.365 187.5H404.29L404.365 187.2L405.265 187.1C405.732 187.05 406.14 186.933 406.49 186.75C406.84 186.567 407.173 186.308 407.49 185.975L409.89 183.55H410.265L409.565 186.975H412.29L412.165 187.5H409.44L407.715 195.825C407.648 196.142 407.598 196.417 407.565 196.65C407.532 196.867 407.515 197.05 407.515 197.2C407.515 197.367 407.565 197.5 407.665 197.6C407.765 197.7 407.873 197.75 407.99 197.75C408.223 197.75 408.473 197.658 408.74 197.475C409.007 197.275 409.34 196.983 409.74 196.6L410.04 196.85C409.623 197.467 409.082 198.042 408.415 198.575C407.748 199.108 406.982 199.375 406.115 199.375ZM412.239 199.15L412.089 199L414.364 188.1C414.497 187.467 414.614 186.9 414.714 186.4C414.814 185.883 414.922 185.308 415.039 184.675C415.172 183.958 414.897 183.483 414.214 183.25L413.814 183.125L413.864 182.875L418.639 181.475L418.814 181.65L417.114 189.625C417.947 188.758 418.83 188.042 419.764 187.475C420.714 186.892 421.589 186.6 422.389 186.6C422.922 186.6 423.355 186.767 423.689 187.1C424.039 187.417 424.214 187.917 424.214 188.6C424.214 188.95 424.18 189.317 424.114 189.7C424.047 190.067 423.964 190.45 423.864 190.85L422.614 195.95C422.547 196.267 422.48 196.542 422.414 196.775C422.347 196.992 422.314 197.167 422.314 197.3C422.314 197.65 422.464 197.825 422.764 197.825C423.197 197.825 423.805 197.458 424.589 196.725L424.814 196.95C424.414 197.567 423.872 198.125 423.189 198.625C422.505 199.125 421.73 199.375 420.864 199.375C420.314 199.375 419.889 199.25 419.589 199C419.289 198.733 419.139 198.367 419.139 197.9C419.139 197.55 419.18 197.192 419.264 196.825C419.347 196.442 419.447 196.05 419.564 195.65L420.689 191.25C420.805 190.8 420.905 190.392 420.989 190.025C421.089 189.642 421.139 189.317 421.139 189.05C421.139 188.467 420.864 188.175 420.314 188.175C419.497 188.175 418.422 188.842 417.089 190.175L416.339 193.65C416.122 194.667 415.93 195.592 415.764 196.425C415.614 197.242 415.464 198.1 415.314 199L412.239 199.15ZM431.037 199.375C429.787 199.375 428.77 198.967 427.987 198.15C427.203 197.333 426.812 196.175 426.812 194.675C426.812 193.608 426.995 192.592 427.362 191.625C427.728 190.658 428.237 189.8 428.887 189.05C429.553 188.283 430.32 187.683 431.187 187.25C432.053 186.817 432.995 186.6 434.012 186.6C435.062 186.6 435.862 186.842 436.412 187.325C436.978 187.792 437.262 188.417 437.262 189.2C437.262 189.85 436.953 190.492 436.337 191.125C435.737 191.758 434.887 192.333 433.787 192.85C432.687 193.35 431.395 193.733 429.912 194C429.928 195.15 430.178 195.992 430.662 196.525C431.145 197.058 431.812 197.325 432.662 197.325C433.378 197.325 434.037 197.133 434.637 196.75C435.237 196.35 435.745 195.883 436.162 195.35L436.412 195.525C436.078 196.175 435.645 196.792 435.112 197.375C434.595 197.958 433.995 198.442 433.312 198.825C432.628 199.192 431.87 199.375 431.037 199.375ZM433.837 187.275C433.453 187.275 433.037 187.442 432.587 187.775C432.153 188.108 431.737 188.567 431.337 189.15C430.953 189.717 430.628 190.375 430.362 191.125C430.112 191.858 429.962 192.642 429.912 193.475C431.745 192.975 433.045 192.317 433.812 191.5C434.595 190.683 434.987 189.758 434.987 188.725C434.987 188.225 434.878 187.858 434.662 187.625C434.445 187.392 434.17 187.275 433.837 187.275ZM447.156 199.375C446.489 199.375 445.897 199.117 445.381 198.6C444.881 198.083 444.631 197.183 444.631 195.9C444.631 195.033 444.797 194.158 445.131 193.275C445.464 192.392 445.906 191.558 446.456 190.775C447.022 189.975 447.656 189.258 448.356 188.625C449.072 187.992 449.814 187.5 450.581 187.15C451.347 186.783 452.097 186.6 452.831 186.6C453.164 186.6 453.481 186.65 453.781 186.75L454.156 184.875C454.306 184.125 454.031 183.617 453.331 183.35L452.781 183.125L452.831 182.875L457.681 181.475L457.856 181.65L454.781 196.2C454.731 196.467 454.689 196.692 454.656 196.875C454.639 197.042 454.631 197.208 454.631 197.375C454.631 197.725 454.772 197.9 455.056 197.9C455.256 197.9 455.522 197.8 455.856 197.6C456.206 197.383 456.556 197.067 456.906 196.65L457.181 196.9C456.781 197.567 456.239 198.15 455.556 198.65C454.872 199.133 454.147 199.375 453.381 199.375C452.831 199.375 452.397 199.2 452.081 198.85C451.764 198.483 451.606 198.017 451.606 197.45C451.606 197.167 451.631 196.833 451.681 196.45C450.997 197.317 450.247 198.025 449.431 198.575C448.631 199.108 447.872 199.375 447.156 199.375ZM447.681 195.1C447.681 195.933 447.814 196.533 448.081 196.9C448.347 197.267 448.697 197.45 449.131 197.45C449.897 197.45 450.781 196.867 451.781 195.7C451.797 195.617 451.814 195.525 451.831 195.425L453.356 188.05C452.939 187.667 452.447 187.475 451.881 187.475C451.464 187.475 451.072 187.575 450.706 187.775C450.356 187.958 450.022 188.225 449.706 188.575C449.322 189.008 448.972 189.592 448.656 190.325C448.356 191.042 448.114 191.825 447.931 192.675C447.764 193.508 447.681 194.317 447.681 195.1ZM463.127 199.375C461.877 199.375 460.861 198.967 460.077 198.15C459.294 197.333 458.902 196.175 458.902 194.675C458.902 193.608 459.086 192.592 459.452 191.625C459.819 190.658 460.327 189.8 460.977 189.05C461.644 188.283 462.411 187.683 463.277 187.25C464.144 186.817 465.086 186.6 466.102 186.6C467.152 186.6 467.952 186.842 468.502 187.325C469.069 187.792 469.352 188.417 469.352 189.2C469.352 189.85 469.044 190.492 468.427 191.125C467.827 191.758 466.977 192.333 465.877 192.85C464.777 193.35 463.486 193.733 462.002 194C462.019 195.15 462.269 195.992 462.752 196.525C463.236 197.058 463.902 197.325 464.752 197.325C465.469 197.325 466.127 197.133 466.727 196.75C467.327 196.35 467.836 195.883 468.252 195.35L468.502 195.525C468.169 196.175 467.736 196.792 467.202 197.375C466.686 197.958 466.086 198.442 465.402 198.825C464.719 199.192 463.961 199.375 463.127 199.375ZM465.927 187.275C465.544 187.275 465.127 187.442 464.677 187.775C464.244 188.108 463.827 188.567 463.427 189.15C463.044 189.717 462.719 190.375 462.452 191.125C462.202 191.858 462.052 192.642 462.002 193.475C463.836 192.975 465.136 192.317 465.902 191.5C466.686 190.683 467.077 189.758 467.077 188.725C467.077 188.225 466.969 187.858 466.752 187.625C466.536 187.392 466.261 187.275 465.927 187.275ZM473.535 199.375C472.485 199.375 471.635 199.167 470.985 198.75C470.335 198.333 470.01 197.742 470.01 196.975C470.01 196.575 470.152 196.225 470.435 195.925C470.719 195.625 471.085 195.475 471.535 195.475C472.369 195.475 472.885 195.983 473.085 197L473.235 197.7C473.319 198.05 473.419 198.333 473.535 198.55C473.669 198.767 473.919 198.875 474.285 198.875C474.702 198.875 475.069 198.7 475.385 198.35C475.702 198 475.86 197.517 475.86 196.9C475.86 196.433 475.71 195.983 475.41 195.55C475.127 195.117 474.644 194.642 473.96 194.125C473.277 193.592 472.727 193.042 472.31 192.475C471.894 191.892 471.685 191.2 471.685 190.4C471.685 189.7 471.86 189.067 472.21 188.5C472.577 187.917 473.102 187.458 473.785 187.125C474.469 186.775 475.277 186.6 476.21 186.6C477.294 186.6 478.144 186.817 478.76 187.25C479.394 187.683 479.71 188.242 479.71 188.925C479.71 189.292 479.602 189.6 479.385 189.85C479.169 190.083 478.844 190.2 478.41 190.2C477.61 190.2 477.069 189.717 476.785 188.75L476.535 188.05C476.452 187.717 476.352 187.483 476.235 187.35C476.119 187.217 475.935 187.15 475.685 187.15C475.419 187.15 475.144 187.3 474.86 187.6C474.577 187.883 474.435 188.342 474.435 188.975C474.435 189.575 474.61 190.125 474.96 190.625C475.327 191.108 475.869 191.617 476.585 192.15C477.319 192.7 477.852 193.233 478.185 193.75C478.535 194.267 478.71 194.892 478.71 195.625C478.71 196.308 478.51 196.933 478.11 197.5C477.71 198.067 477.127 198.525 476.36 198.875C475.594 199.208 474.652 199.375 473.535 199.375ZM485.366 185.2C484.899 185.2 484.491 185.05 484.141 184.75C483.808 184.433 483.641 184.017 483.641 183.5C483.641 182.917 483.841 182.442 484.241 182.075C484.658 181.692 485.124 181.5 485.641 181.5C486.141 181.5 486.549 181.658 486.866 181.975C487.183 182.292 487.341 182.7 487.341 183.2C487.341 183.767 487.141 184.242 486.741 184.625C486.341 185.008 485.883 185.2 485.366 185.2ZM483.041 199.375C482.524 199.375 482.099 199.242 481.766 198.975C481.433 198.708 481.266 198.317 481.266 197.8C481.266 197.5 481.299 197.142 481.366 196.725C481.433 196.308 481.508 195.892 481.591 195.475L482.766 189.85C482.916 189.167 482.674 188.683 482.041 188.4L481.641 188.2L481.666 187.925L486.366 186.575L486.616 186.8L484.666 195.85C484.599 196.15 484.549 196.408 484.516 196.625C484.483 196.825 484.466 197.025 484.466 197.225C484.466 197.592 484.633 197.775 484.966 197.775C485.216 197.775 485.466 197.7 485.716 197.55C485.966 197.383 486.283 197.117 486.666 196.75L486.891 196.975C486.474 197.592 485.941 198.15 485.291 198.65C484.658 199.133 483.908 199.375 483.041 199.375ZM491.395 204.9C489.995 204.9 488.886 204.683 488.07 204.25C487.27 203.817 486.87 203.183 486.87 202.35C486.87 201.833 487.053 201.358 487.42 200.925C487.786 200.508 488.236 200.142 488.77 199.825C489.32 199.508 489.878 199.258 490.445 199.075C489.878 198.925 489.436 198.725 489.12 198.475C488.803 198.208 488.645 197.875 488.645 197.475C488.645 197.075 488.878 196.608 489.345 196.075C489.828 195.525 490.395 195 491.045 194.5C490.561 194.167 490.195 193.75 489.945 193.25C489.695 192.75 489.57 192.225 489.57 191.675C489.57 190.758 489.803 189.917 490.27 189.15C490.736 188.383 491.361 187.767 492.145 187.3C492.945 186.833 493.82 186.6 494.77 186.6C495.403 186.6 495.986 186.692 496.52 186.875C497.07 187.042 497.528 187.3 497.895 187.65C498.428 187.567 498.936 187.442 499.42 187.275C499.92 187.092 500.395 186.867 500.845 186.6L501.02 186.775L500.77 188.075H498.27C498.67 188.608 498.87 189.25 498.87 190C498.87 191.017 498.645 191.917 498.195 192.7C497.761 193.483 497.153 194.1 496.37 194.55C495.586 194.983 494.67 195.2 493.62 195.2C492.82 195.2 492.111 195.05 491.495 194.75L491.12 195.375C490.986 195.575 490.945 195.775 490.995 195.975C491.045 196.175 491.22 196.3 491.52 196.35L495.62 197.175C497.003 197.458 497.97 197.825 498.52 198.275C499.086 198.725 499.37 199.342 499.37 200.125C499.37 201.058 499.02 201.883 498.32 202.6C497.636 203.317 496.695 203.875 495.495 204.275C494.295 204.692 492.928 204.9 491.395 204.9ZM494.07 194.7C494.62 194.7 495.086 194.383 495.47 193.75C495.87 193.117 496.07 192.017 496.07 190.45C496.07 189.383 495.928 188.558 495.645 187.975C495.361 187.392 495.003 187.1 494.57 187.1C493.903 187.117 493.395 187.508 493.045 188.275C492.695 189.025 492.52 190.033 492.52 191.3C492.52 192.217 492.636 193.017 492.87 193.7C493.12 194.383 493.52 194.717 494.07 194.7ZM489.395 201.475C489.395 202.308 489.695 202.958 490.295 203.425C490.895 203.908 491.703 204.15 492.72 204.15C494.003 204.15 495.011 203.933 495.745 203.5C496.478 203.067 496.845 202.442 496.845 201.625C496.845 201.142 496.628 200.758 496.195 200.475C495.778 200.192 495.036 199.95 493.97 199.75L491.045 199.2C490.961 199.183 490.886 199.167 490.82 199.15C490.386 199.417 490.036 199.742 489.77 200.125C489.52 200.525 489.395 200.975 489.395 201.475ZM502.256 199.175L502.031 199L503.956 189.8C504.106 189.15 503.873 188.683 503.256 188.4L502.831 188.2L502.856 187.95L507.506 186.575L507.731 186.775L507.156 189.8C508.023 188.817 508.906 188.042 509.806 187.475C510.706 186.892 511.556 186.6 512.356 186.6C512.89 186.6 513.331 186.767 513.681 187.1C514.031 187.417 514.206 187.917 514.206 188.6C514.206 188.95 514.173 189.317 514.106 189.7C514.04 190.067 513.956 190.45 513.856 190.85L512.531 196.175C512.465 196.442 512.415 196.667 512.381 196.85C512.348 197.017 512.331 197.167 512.331 197.3C512.331 197.65 512.473 197.825 512.756 197.825C513.223 197.825 513.815 197.45 514.531 196.7L514.781 196.95C514.365 197.567 513.815 198.125 513.131 198.625C512.448 199.125 511.69 199.375 510.856 199.375C510.306 199.375 509.881 199.25 509.581 199C509.281 198.733 509.131 198.367 509.131 197.9C509.131 197.55 509.173 197.192 509.256 196.825C509.34 196.442 509.431 196.05 509.531 195.65L510.506 191.75C510.64 191.217 510.748 190.742 510.831 190.325C510.915 189.908 510.956 189.525 510.956 189.175C510.956 188.875 510.89 188.667 510.756 188.55C510.623 188.417 510.44 188.35 510.206 188.35C509.806 188.35 509.331 188.525 508.781 188.875C508.248 189.225 507.656 189.775 507.006 190.525L506.306 193.675C506.123 194.558 505.948 195.442 505.781 196.325C505.615 197.208 505.448 198.1 505.281 199L502.256 199.175ZM518.796 199.325C518.23 199.325 517.763 199.15 517.396 198.8C517.046 198.433 516.871 198 516.871 197.5C516.871 196.867 517.096 196.333 517.546 195.9C518.013 195.467 518.546 195.25 519.146 195.25C519.713 195.25 520.171 195.433 520.521 195.8C520.888 196.167 521.071 196.608 521.071 197.125C521.071 197.742 520.838 198.267 520.371 198.7C519.921 199.117 519.396 199.325 518.796 199.325Z" fill="#CDA274"/>
<path d="M423.252 82.6C427.652 82.6 431.252 84.0667 434.052 87C436.718 89.9333 438.052 93.8667 438.052 98.8C438.052 107.467 435.185 115 429.452 121.4C423.585 127.8 416.585 133.067 408.452 137.2L406.452 133.8C409.785 131.667 412.918 128.933 415.852 125.6C418.652 122.267 420.852 118.667 422.452 114.8L416.852 110.6C414.585 109.133 412.718 107.133 411.252 104.6C409.785 102.2 409.052 99.8667 409.052 97.6C409.052 93.3333 410.385 89.7333 413.052 86.8C415.585 84 418.985 82.6 423.252 82.6ZM382.052 82.6C386.452 82.6 390.052 84.0667 392.852 87C395.518 89.9333 396.852 93.8667 396.852 98.8C396.852 107.467 393.985 115 388.252 121.4C382.385 127.8 375.385 133.067 367.252 137.2L365.252 133.8C368.585 131.667 371.718 128.933 374.652 125.6C377.452 122.267 379.652 118.667 381.252 114.8L375.652 110.6C373.385 109.133 371.518 107.133 370.052 104.6C368.585 102.2 367.852 99.8667 367.852 97.6C367.852 93.3333 369.185 89.7333 371.852 86.8C374.385 84 377.785 82.6 382.052 82.6Z" fill="#CDA274"/>
</svg>
